
<svg width="120" height="120" viewBox="0 0 120 120" xmlns="http://www.w3.org/2000/svg">
  <!-- Background -->
  <rect width="120" height="120" fill="transparent"/>
  
  <!-- Grid container -->
  <g transform="translate(10, 10)">
    <!-- Bottom filled blocks (creating an almost complete line) -->
    <rect x="0" y="80" width="20" height="20" fill="black" stroke="white" stroke-width="3"/>
    <rect x="20" y="80" width="20" height="20" fill="black" stroke="white" stroke-width="3"/>
    <rect x="40" y="80" width="20" height="20" fill="black" stroke="white" stroke-width="3"/>
    <!-- Gap for the falling piece -->
    <rect x="80" y="80" width="20" height="20" fill="black" stroke="white" stroke-width="3"/>
    
    <!-- Other filled blocks creating a Tetris-like pattern -->
    <rect x="0" y="60" width="20" height="20" fill="black" stroke="white" stroke-width="3"/>
    <rect x="20" y="40" width="20" height="20" fill="black" stroke="white" stroke-width="3"/>
    <rect x="20" y="60" width="20" height="20" fill="black" stroke="white" stroke-width="3"/>
    <rect x="40" y="60" width="20" height="20" fill="black" stroke="white" stroke-width="3"/>
    <rect x="80" y="40" width="20" height="20" fill="black" stroke="white" stroke-width="3"/>
    <rect x="80" y="60" width="20" height="20" fill="black" stroke="white" stroke-width="3"/>

    <!-- Falling T-piece (vertical orientation) -->
    <rect x="0" y="200" width="20" height="20" fill="black" stroke="white" stroke-width="3"/>
    <rect x="20" y="40" width="20" height="20" fill="black" stroke="white" stroke-width="3"/>
    
    
    <!-- Falling I-piece (vertical orientation) -->
    <g transform="translate(60, -20)">
      <rect x="-20" y="20" width="20" height="20" fill="black" stroke="white" stroke-width="3"/>
      <rect x="0" y="20" width="20" height="20" fill="black" stroke="white" stroke-width="3"/>
      <rect x="0" y="40" width="20" height="20" fill="black" stroke="white" stroke-width="3"/>
      <rect x="0" y="60" width="20" height="20" fill="black" stroke="white" stroke-width="3"/>
    </g>
    
  </g>
</svg>